<svg width="197" height="62" viewBox="0 0 197 62" fill="none" xmlns="http://www.w3.org/2000/svg">
<path d="M32.218 56.3423C17.8806 56.3922 6.61415 44.4854 6.67456 30.8236C6.74503 16.0149 19.552 4.6765 33.8693 5.51416C46.4547 6.2521 58.2246 16.7229 58.0333 31.3321C57.8522 45.2035 46.1829 56.5119 32.218 56.3423ZM33.1947 29.8961C33.1947 29.8961 33.2046 29.8961 33.2148 29.8961C33.2148 30.9932 33.1745 32.09 33.2148 33.1869C33.4263 37.6445 36.4367 41.065 41.0681 42.142C45.2868 43.1292 49.8778 41.434 51.942 37.5848C54.2275 33.3366 54.7711 28.5797 53.8751 23.8331C51.7606 12.5944 41.4809 5.11527 29.872 6.35182C15.8368 7.84764 7.04709 22.7959 11.9101 35.9094C13.4405 40.0479 17.1759 42.5906 21.3844 42.3713C26.1267 42.1219 29.8922 39.3796 30.7983 35.0218C31.3018 32.5985 31.1407 29.0885 31.201 26.5855C31.2413 24.9101 30.8588 24.5709 29.1473 24.4214C24.4151 24.0125 21.0522 21.0408 20.136 16.4636C19.7936 14.7683 20.3373 14.1102 22.0691 14.1002C25.7439 14.0803 29.1673 16.2941 30.5969 19.6248C30.9394 20.4126 30.9292 21.5394 32.1777 21.5394C33.4263 21.5394 33.4161 20.3926 33.7485 19.6148C35.2586 16.1146 38.9639 13.8509 42.7495 14.1301C43.8268 14.2099 44.3807 14.7185 44.2396 15.7855C44.1289 16.6331 43.998 17.5107 43.6758 18.2885C42.0749 22.1278 39.1551 24.1921 34.9466 24.4414C33.5471 24.5212 33.2249 24.8702 33.2046 26.2563C33.1846 27.4728 33.2046 28.6896 33.2046 29.9061L33.1947 29.8961Z" fill="#4B4B4B"/>
<path d="M32.3768 16.478C34.2879 16.478 35.8372 14.9435 35.8372 13.0507C35.8372 11.1579 34.2879 9.62341 32.3768 9.62341C30.4658 9.62341 28.9165 11.1579 28.9165 13.0507C28.9165 14.9435 30.4658 16.478 32.3768 16.478Z" fill="#FE6354"/>
<path d="M182.753 38.7897C181.656 38.7897 180.589 38.6891 179.553 38.4879C178.537 38.2866 177.613 37.9746 176.78 37.5519C176.394 37.3509 176.13 37.1093 175.987 36.8275C175.865 36.5458 175.825 36.254 175.865 35.9523C175.926 35.6705 176.048 35.4189 176.231 35.1975C176.434 34.9762 176.678 34.8253 176.962 34.7446C177.247 34.6642 177.542 34.7045 177.846 34.8654C178.74 35.3081 179.584 35.5901 180.376 35.7106C181.189 35.8515 181.88 35.9219 182.449 35.9219C183.81 35.9219 184.826 35.5901 185.496 34.9258C186.187 34.2819 186.532 33.3159 186.532 32.028V29.3112H186.807C186.502 30.3376 185.862 31.1625 184.887 31.7864C183.932 32.3902 182.845 32.692 181.626 32.692C180.285 32.692 179.116 32.3902 178.121 31.7864C177.125 31.1625 176.353 30.2973 175.804 29.1904C175.256 28.0837 174.981 26.7956 174.981 25.3265C174.981 24.2197 175.134 23.2236 175.439 22.3381C175.764 21.4326 176.211 20.6578 176.78 20.0138C177.369 19.3698 178.07 18.8768 178.883 18.5347C179.716 18.1725 180.63 17.9913 181.626 17.9913C182.885 17.9913 183.982 18.3032 184.917 18.9271C185.872 19.5308 186.492 20.3358 186.776 21.342L186.472 22.0967V19.9534C186.472 19.3296 186.634 18.8567 186.959 18.5347C187.305 18.2127 187.772 18.0517 188.361 18.0517C188.971 18.0517 189.438 18.2127 189.763 18.5347C190.088 18.8567 190.251 19.3296 190.251 19.9534V31.5751C190.251 33.9698 189.611 35.771 188.331 36.9784C187.051 38.1861 185.192 38.7897 182.753 38.7897ZM182.662 29.8243C183.454 29.8243 184.135 29.6433 184.704 29.2811C185.273 28.9187 185.71 28.4056 186.014 27.7416C186.34 27.0573 186.502 26.2522 186.502 25.3265C186.502 23.9379 186.157 22.8513 185.466 22.0665C184.775 21.2615 183.84 20.859 182.662 20.859C181.87 20.859 181.189 21.0401 180.62 21.4024C180.051 21.7646 179.604 22.2778 179.279 22.9418C178.974 23.606 178.822 24.4009 178.822 25.3265C178.822 26.7152 179.167 27.812 179.858 28.6169C180.549 29.422 181.483 29.8243 182.662 29.8243Z" fill="#4B4B4B"/>
<path d="M161.39 33.2958C160.78 33.2958 160.313 33.1349 159.988 32.8128C159.662 32.4707 159.5 31.9877 159.5 31.3638V19.9534C159.5 19.3296 159.662 18.8567 159.988 18.5347C160.313 18.2127 160.77 18.0517 161.359 18.0517C161.948 18.0517 162.406 18.2127 162.731 18.5347C163.056 18.8567 163.218 19.3296 163.218 19.9534V22.0061L162.883 21.2514C163.33 20.1849 164.021 19.3799 164.955 18.8365C165.911 18.2731 166.987 17.9913 168.186 17.9913C169.385 17.9913 170.37 18.2127 171.142 18.6554C171.914 19.0982 172.494 19.7723 172.88 20.6779C173.266 21.5634 173.459 22.6903 173.459 24.0587V31.3638C173.459 31.9877 173.296 32.4707 172.971 32.8128C172.646 33.1349 172.179 33.2958 171.569 33.2958C170.96 33.2958 170.482 33.1349 170.137 32.8128C169.812 32.4707 169.649 31.9877 169.649 31.3638V24.24C169.649 23.0927 169.425 22.2577 168.979 21.7344C168.552 21.2112 167.881 20.9496 166.967 20.9496C165.85 20.9496 164.955 21.3018 164.285 22.0061C163.635 22.6903 163.31 23.606 163.31 24.753V31.3638C163.31 32.6519 162.67 33.2958 161.39 33.2958Z" fill="#4B4B4B"/>
<path d="M149.264 33.3562C148.187 33.3562 147.222 33.155 146.368 32.7524C145.535 32.3298 144.875 31.7663 144.387 31.062C143.92 30.3577 143.687 29.5628 143.687 28.6773C143.687 27.5905 143.971 26.7352 144.54 26.1114C145.109 25.4674 146.033 25.0047 147.313 24.723C148.593 24.4412 150.31 24.3004 152.464 24.3004H153.988V26.4738H152.494C151.235 26.4738 150.229 26.534 149.477 26.6548C148.725 26.7756 148.187 26.9869 147.862 27.2887C147.557 27.5704 147.405 27.9729 147.405 28.4961C147.405 29.1603 147.638 29.7037 148.106 30.1263C148.573 30.5489 149.223 30.7602 150.056 30.7602C150.727 30.7602 151.316 30.6093 151.824 30.3073C152.352 29.9854 152.769 29.5526 153.073 29.0094C153.378 28.466 153.531 27.8421 153.531 27.1378V23.6665C153.531 22.6601 153.307 21.9357 152.86 21.4929C152.413 21.0502 151.661 20.8288 150.605 20.8288C150.016 20.8288 149.376 20.8993 148.685 21.0401C148.014 21.181 147.303 21.4225 146.551 21.7646C146.165 21.9457 145.82 21.9961 145.515 21.9155C145.231 21.8351 145.007 21.6741 144.845 21.4326C144.682 21.171 144.601 20.8892 144.601 20.5874C144.601 20.2855 144.682 19.9937 144.845 19.7119C145.007 19.4101 145.281 19.1887 145.667 19.0478C146.602 18.6655 147.496 18.3938 148.349 18.2328C149.223 18.0718 150.016 17.9913 150.727 17.9913C152.19 17.9913 153.388 18.2127 154.323 18.6554C155.278 19.0982 155.989 19.7723 156.457 20.6779C156.924 21.5634 157.158 22.7104 157.158 24.1191V31.3638C157.158 31.9877 157.005 32.4707 156.7 32.8128C156.396 33.1349 155.959 33.2958 155.39 33.2958C154.821 33.2958 154.374 33.1349 154.049 32.8128C153.744 32.4707 153.592 31.9877 153.592 31.3638V29.915H153.835C153.693 30.6193 153.409 31.233 152.982 31.7563C152.576 32.2594 152.058 32.6519 151.428 32.9336C150.798 33.2154 150.077 33.3562 149.264 33.3562Z" fill="#4B4B4B"/>
<path d="M133.915 38.7295C133.468 38.7295 133.102 38.6087 132.818 38.3673C132.534 38.146 132.361 37.8439 132.3 37.4617C132.259 37.0794 132.33 36.6769 132.513 36.2543L134.586 31.6961V33.2657L129.039 20.5573C128.856 20.1146 128.795 19.7021 128.856 19.3197C128.917 18.9373 129.1 18.6355 129.405 18.4141C129.729 18.1726 130.166 18.0519 130.715 18.0519C131.182 18.0519 131.558 18.1626 131.843 18.3839C132.127 18.5852 132.381 18.9776 132.605 19.5612L136.719 29.734H135.805L140.011 19.531C140.234 18.9675 140.498 18.5852 140.803 18.3839C141.108 18.1626 141.514 18.0519 142.022 18.0519C142.469 18.0519 142.825 18.1726 143.089 18.4141C143.353 18.6355 143.516 18.9373 143.577 19.3197C143.637 19.6819 143.566 20.0844 143.363 20.5272L135.957 37.2805C135.693 37.8439 135.408 38.2264 135.104 38.4277C134.799 38.629 134.403 38.7295 133.915 38.7295Z" fill="#4B4B4B"/>
<path d="M115.736 33.3562C114.05 33.3562 112.597 33.0442 111.378 32.4203C110.159 31.7964 109.214 30.9111 108.544 29.7639C107.894 28.6169 107.568 27.2586 107.568 25.6887C107.568 24.1595 107.883 22.8212 108.513 21.6741C109.163 20.527 110.047 19.6315 111.165 18.9875C112.303 18.3234 113.593 17.9913 115.035 17.9913C116.092 17.9913 117.037 18.1624 117.87 18.5045C118.723 18.8466 119.445 19.3396 120.034 19.9836C120.643 20.6276 121.1 21.4124 121.405 22.3381C121.73 23.2439 121.893 24.27 121.893 25.4173C121.893 25.7795 121.761 26.0612 121.497 26.2625C121.253 26.4435 120.897 26.534 120.43 26.534H110.647V24.3605H119.211L118.723 24.8135C118.723 23.8878 118.581 23.113 118.297 22.4891C118.032 21.8652 117.636 21.3923 117.108 21.0703C116.6 20.7282 115.96 20.5572 115.188 20.5572C114.334 20.5572 113.603 20.7584 112.993 21.1609C112.404 21.5432 111.947 22.0967 111.622 22.8212C111.317 23.5256 111.165 24.3708 111.165 25.3569V25.5682C111.165 27.2182 111.551 28.456 112.323 29.2811C113.115 30.086 114.273 30.4885 115.797 30.4885C116.326 30.4885 116.915 30.4281 117.565 30.3073C118.236 30.1664 118.865 29.9351 119.455 29.613C119.881 29.3716 120.257 29.2708 120.582 29.3112C120.908 29.3312 121.161 29.442 121.344 29.6433C121.548 29.8446 121.669 30.096 121.71 30.398C121.751 30.6797 121.69 30.9715 121.527 31.2733C121.385 31.5751 121.131 31.8368 120.765 32.0581C120.054 32.5008 119.231 32.8329 118.297 33.0542C117.382 33.2555 116.529 33.3562 115.736 33.3562Z" fill="#4B4B4B"/>
<path d="M98.4701 38.7897C97.3728 38.7897 96.3061 38.6891 95.27 38.4879C94.2539 38.2866 93.3294 37.9746 92.4963 37.5519C92.1104 37.3509 91.8462 37.1093 91.704 36.8275C91.5822 36.5458 91.5415 36.254 91.5822 35.9523C91.643 35.6705 91.7649 35.4189 91.9479 35.1975C92.1511 34.9762 92.3948 34.8253 92.6793 34.7446C92.9637 34.6642 93.2583 34.7045 93.5633 34.8654C94.4571 35.3081 95.3003 35.5901 96.0927 35.7106C96.9056 35.8515 97.5962 35.9219 98.1651 35.9219C99.5266 35.9219 100.542 35.5901 101.213 34.9258C101.904 34.2819 102.249 33.3159 102.249 32.028V29.3112H102.524C102.219 30.3376 101.579 31.1625 100.603 31.7864C99.6484 32.3902 98.5614 32.692 97.3424 32.692C96.0014 32.692 94.8329 32.3902 93.8374 31.7864C92.8418 31.1625 92.0696 30.2973 91.5212 29.1904C90.9726 28.0837 90.6982 26.7956 90.6982 25.3265C90.6982 24.2197 90.8506 23.2236 91.1555 22.3381C91.4805 21.4326 91.9274 20.6578 92.4963 20.0138C93.0857 19.3698 93.7867 18.8768 94.5993 18.5347C95.4325 18.1725 96.3468 17.9913 97.3424 17.9913C98.6022 17.9913 99.6993 18.3032 100.634 18.9271C101.589 19.5308 102.209 20.3358 102.493 21.342L102.188 22.0967V19.9534C102.188 19.3296 102.351 18.8567 102.676 18.5347C103.021 18.2127 103.489 18.0517 104.078 18.0517C104.688 18.0517 105.155 18.2127 105.48 18.5347C105.805 18.8567 105.968 19.3296 105.968 19.9534V31.5751C105.968 33.9698 105.328 35.771 104.048 36.9784C102.767 38.1861 100.908 38.7897 98.4701 38.7897ZM98.3785 29.8243C99.1711 29.8243 99.8516 29.6433 100.421 29.2811C100.989 28.9187 101.426 28.4056 101.731 27.7416C102.056 27.0573 102.219 26.2522 102.219 25.3265C102.219 23.9379 101.873 22.8513 101.183 22.0665C100.492 21.2615 99.557 20.859 98.3785 20.859C97.5861 20.859 96.9056 21.0401 96.3367 21.4024C95.7678 21.7646 95.3206 22.2778 94.9956 22.9418C94.6907 23.606 94.5384 24.4009 94.5384 25.3265C94.5384 26.7152 94.8838 27.812 95.5747 28.6169C96.2656 29.422 97.2002 29.8243 98.3785 29.8243Z" fill="#4B4B4B"/>
<path d="M77.1062 33.2958C76.4968 33.2958 76.0294 33.1349 75.7042 32.8128C75.3793 32.4707 75.2168 31.9877 75.2168 31.3638V19.9534C75.2168 19.3296 75.3793 18.8567 75.7042 18.5347C76.0294 18.2127 76.4865 18.0517 77.0759 18.0517C77.665 18.0517 78.1223 18.2127 78.4473 18.5347C78.7725 18.8567 78.9349 19.3296 78.9349 19.9534V22.0061L78.5996 21.2514C79.0468 20.1849 79.7374 19.3799 80.6723 18.8365C81.6271 18.2731 82.7039 17.9913 83.9027 17.9913C85.1015 17.9913 86.087 18.2127 86.8591 18.6554C87.6313 19.0982 88.2103 19.7723 88.5962 20.6779C88.9824 21.5634 89.1755 22.6903 89.1755 24.0587V31.3638C89.1755 31.9877 89.0128 32.4707 88.6878 32.8128C88.3626 33.1349 87.8954 33.2958 87.2858 33.2958C86.6762 33.2958 86.1989 33.1349 85.8534 32.8128C85.5282 32.4707 85.3657 31.9877 85.3657 31.3638V24.24C85.3657 23.0927 85.1423 22.2577 84.6951 21.7344C84.2684 21.2112 83.598 20.9496 82.6837 20.9496C81.5661 20.9496 80.6723 21.3018 80.0016 22.0061C79.3515 22.6903 79.0263 23.606 79.0263 24.753V31.3638C79.0263 32.6519 78.3863 33.2958 77.1062 33.2958Z" fill="#4B4B4B"/>
<path d="M70.8623 33.2655C70.2527 33.2655 69.7853 33.0843 69.4603 32.7221C69.1351 32.3599 68.9727 31.8569 68.9727 31.2127V20.1344C68.9727 19.4703 69.1351 18.9672 69.4603 18.6251C69.7853 18.2628 70.2527 18.0817 70.8623 18.0817C71.4717 18.0817 71.9392 18.2628 72.2641 18.6251C72.6096 18.9672 72.7824 19.4703 72.7824 20.1344V31.2127C72.7824 31.8569 72.6197 32.3599 72.2947 32.7221C71.9695 33.0843 71.4922 33.2655 70.8623 33.2655Z" fill="#4B4B4B"/>
<path d="M70.8487 15.2953C71.9409 15.2953 72.8263 14.4184 72.8263 13.3366C72.8263 12.2549 71.9409 11.3779 70.8487 11.3779C69.7565 11.3779 68.8711 12.2549 68.8711 13.3366C68.8711 14.4184 69.7565 15.2953 70.8487 15.2953Z" fill="#FE6354"/>
<path d="M187.495 50.5883C187.108 50.5883 186.762 50.5163 186.456 50.372C186.157 50.2204 185.92 50.0183 185.745 49.7657C185.578 49.5129 185.494 49.228 185.494 48.9102C185.494 48.5205 185.596 48.2137 185.8 47.99C186.004 47.7591 186.336 47.593 186.795 47.492C187.254 47.391 187.87 47.3404 188.642 47.3404H189.189V48.12H188.653C188.201 48.12 187.841 48.1416 187.571 48.1849C187.301 48.2282 187.108 48.3039 186.992 48.4122C186.882 48.5134 186.828 48.6577 186.828 48.8453C186.828 49.0835 186.912 49.2784 187.079 49.4299C187.247 49.5815 187.48 49.6574 187.779 49.6574C188.019 49.6574 188.231 49.6032 188.413 49.4949C188.602 49.3793 188.752 49.2243 188.861 49.0295C188.97 48.8346 189.025 48.6107 189.025 48.3582V47.1129C189.025 46.7521 188.945 46.4922 188.784 46.3336C188.624 46.1747 188.354 46.0954 187.976 46.0954C187.764 46.0954 187.535 46.1205 187.287 46.1711C187.046 46.2217 186.791 46.3083 186.521 46.4309C186.383 46.4959 186.259 46.5139 186.15 46.4852C186.048 46.4562 185.968 46.3986 185.91 46.3119C185.851 46.218 185.822 46.1171 185.822 46.0088C185.822 45.9005 185.851 45.7957 185.91 45.6947C185.968 45.5864 186.066 45.5071 186.205 45.4565C186.54 45.3195 186.86 45.2219 187.167 45.1643C187.48 45.1064 187.764 45.0776 188.019 45.0776C188.544 45.0776 188.974 45.157 189.309 45.3158C189.652 45.4745 189.907 45.7163 190.074 46.0411C190.242 46.3587 190.326 46.7701 190.326 47.2754V49.874C190.326 50.0976 190.271 50.2708 190.162 50.3937C190.052 50.509 189.896 50.5667 189.692 50.5667C189.488 50.5667 189.327 50.509 189.211 50.3937C189.101 50.2708 189.047 50.0976 189.047 49.874V49.3543H189.134C189.083 49.6068 188.981 49.827 188.828 50.0146C188.682 50.1951 188.497 50.3358 188.271 50.4368C188.045 50.538 187.786 50.5883 187.495 50.5883Z" fill="#FE6354"/>
<path d="M182.426 50.5664C182.2 50.5664 182.026 50.5088 181.901 50.3932C181.785 50.2706 181.727 50.0973 181.727 49.8737V45.781C181.727 45.5574 181.785 45.3876 181.901 45.2723C182.018 45.1567 182.182 45.099 182.394 45.099C182.605 45.099 182.769 45.1567 182.885 45.2723C183.002 45.3876 183.06 45.5574 183.06 45.781V46.4633H182.951C183.053 46.0302 183.253 45.7017 183.552 45.4779C183.851 45.2543 184.248 45.1207 184.744 45.0774C184.897 45.0628 185.017 45.1027 185.104 45.1964C185.199 45.283 185.254 45.4202 185.268 45.6078C185.283 45.7883 185.239 45.9363 185.137 46.0518C185.042 46.1601 184.897 46.2251 184.7 46.2467L184.459 46.2684C184.015 46.3117 183.68 46.4487 183.454 46.6798C183.228 46.9034 183.115 47.221 183.115 47.6324V49.8737C183.115 50.0973 183.057 50.2706 182.94 50.3932C182.823 50.5088 182.652 50.5664 182.426 50.5664Z" fill="#FE6354"/>
<path d="M178.654 50.5883C178.049 50.5883 177.528 50.4767 177.091 50.2528C176.654 50.029 176.315 49.7115 176.074 49.3C175.841 48.8886 175.725 48.4015 175.725 47.8385C175.725 47.2898 175.838 46.81 176.063 46.3986C176.297 45.9871 176.614 45.666 177.015 45.4348C177.423 45.1966 177.885 45.0776 178.403 45.0776C178.782 45.0776 179.121 45.139 179.419 45.2616C179.725 45.3844 179.984 45.5611 180.196 45.7922C180.414 46.0231 180.578 46.3046 180.687 46.6368C180.804 46.9613 180.862 47.3295 180.862 47.7409C180.862 47.8708 180.815 47.972 180.72 48.0441C180.633 48.109 180.505 48.1416 180.338 48.1416H176.829V47.3621H179.9L179.725 47.5244C179.725 47.1925 179.675 46.9146 179.572 46.6908C179.478 46.4669 179.335 46.2974 179.146 46.182C178.964 46.0592 178.734 45.9978 178.458 45.9978C178.151 45.9978 177.889 46.0701 177.67 46.2144C177.459 46.3516 177.295 46.5501 177.178 46.81C177.069 47.0625 177.015 47.3657 177.015 47.7192V47.7952C177.015 48.3869 177.153 48.8309 177.43 49.1268C177.714 49.4156 178.13 49.5599 178.676 49.5599C178.866 49.5599 179.077 49.5382 179.31 49.4949C179.55 49.4443 179.776 49.3613 179.988 49.246C180.141 49.1594 180.276 49.1231 180.392 49.1377C180.509 49.1448 180.6 49.1847 180.665 49.2567C180.738 49.329 180.782 49.4192 180.797 49.5275C180.811 49.6285 180.79 49.7331 180.731 49.8414C180.68 49.9497 180.589 50.0436 180.458 50.1229C180.203 50.2818 179.908 50.4007 179.572 50.4801C179.244 50.5523 178.938 50.5883 178.654 50.5883Z" fill="#FE6354"/>
<path d="M172.743 50.5664C172.517 50.5664 172.342 50.5088 172.218 50.3932C172.101 50.2706 172.043 50.0973 172.043 49.8737V45.781C172.043 45.5574 172.101 45.3876 172.218 45.2723C172.334 45.1567 172.498 45.099 172.71 45.099C172.921 45.099 173.085 45.1567 173.201 45.2723C173.318 45.3876 173.376 45.5574 173.376 45.781V46.4633H173.267C173.369 46.0302 173.57 45.7017 173.868 45.4779C174.167 45.2543 174.564 45.1207 175.06 45.0774C175.213 45.0628 175.333 45.1027 175.421 45.1964C175.515 45.283 175.57 45.4202 175.585 45.6078C175.599 45.7883 175.555 45.9363 175.453 46.0518C175.359 46.1601 175.213 46.2251 175.016 46.2467L174.776 46.2684C174.331 46.3117 173.996 46.4487 173.77 46.6798C173.544 46.9034 173.431 47.221 173.431 47.6324V49.8737C173.431 50.0973 173.373 50.2706 173.256 50.3932C173.14 50.5088 172.968 50.5664 172.743 50.5664Z" fill="#FE6354"/>
<path d="M168.681 50.5664C168.455 50.5664 168.28 50.5088 168.156 50.3932C168.04 50.2706 167.981 50.0973 167.981 49.8737V45.781C167.981 45.5574 168.04 45.3876 168.156 45.2723C168.273 45.1567 168.437 45.099 168.648 45.099C168.86 45.099 169.024 45.1567 169.14 45.2723C169.257 45.3876 169.315 45.5574 169.315 45.781V46.4633H169.206C169.308 46.0302 169.508 45.7017 169.807 45.4779C170.106 45.2543 170.503 45.1207 170.999 45.0774C171.152 45.0628 171.272 45.1027 171.359 45.1964C171.454 45.283 171.509 45.4202 171.523 45.6078C171.538 45.7883 171.494 45.9363 171.392 46.0518C171.297 46.1601 171.152 46.2251 170.955 46.2467L170.714 46.2684C170.27 46.3117 169.935 46.4487 169.709 46.6798C169.483 46.9034 169.37 47.221 169.37 47.6324V49.8737C169.37 50.0973 169.311 50.2706 169.195 50.3932C169.078 50.5088 168.907 50.5664 168.681 50.5664Z" fill="#FE6354"/>
<path d="M163.982 50.5883C163.596 50.5883 163.249 50.5163 162.943 50.372C162.644 50.2204 162.408 50.0183 162.233 49.7657C162.065 49.5129 161.981 49.228 161.981 48.9102C161.981 48.5205 162.083 48.2137 162.288 47.99C162.491 47.7591 162.823 47.593 163.282 47.492C163.741 47.391 164.357 47.3404 165.13 47.3404H165.676V48.12H165.141C164.689 48.12 164.328 48.1416 164.058 48.1849C163.789 48.2282 163.596 48.3039 163.479 48.4122C163.37 48.5134 163.315 48.6577 163.315 48.8453C163.315 49.0835 163.399 49.2784 163.566 49.4299C163.734 49.5815 163.967 49.6574 164.266 49.6574C164.507 49.6574 164.718 49.6032 164.9 49.4949C165.089 49.3793 165.239 49.2243 165.348 49.0295C165.457 48.8346 165.512 48.6107 165.512 48.3582V47.1129C165.512 46.7521 165.432 46.4922 165.272 46.3336C165.111 46.1747 164.842 46.0954 164.463 46.0954C164.251 46.0954 164.022 46.1205 163.774 46.1711C163.534 46.2217 163.279 46.3083 163.009 46.4309C162.87 46.4959 162.747 46.5139 162.637 46.4852C162.535 46.4562 162.455 46.3986 162.397 46.3119C162.338 46.218 162.309 46.1171 162.309 46.0088C162.309 45.9005 162.338 45.7957 162.397 45.6947C162.455 45.5864 162.553 45.5071 162.692 45.4565C163.027 45.3195 163.348 45.2219 163.654 45.1643C163.967 45.1064 164.251 45.0776 164.507 45.0776C165.031 45.0776 165.461 45.157 165.796 45.3158C166.139 45.4745 166.394 45.7163 166.561 46.0411C166.729 46.3587 166.813 46.7701 166.813 47.2754V49.874C166.813 50.0976 166.758 50.2708 166.649 50.3937C166.54 50.509 166.383 50.5667 166.179 50.5667C165.975 50.5667 165.815 50.509 165.698 50.3937C165.589 50.2708 165.534 50.0976 165.534 49.874V49.3543H165.622C165.57 49.6068 165.469 49.827 165.315 50.0146C165.17 50.1951 164.984 50.3358 164.758 50.4368C164.532 50.538 164.273 50.5883 163.982 50.5883Z" fill="#FE6354"/>
<path d="M159.787 50.5883C159.226 50.5883 158.738 50.4767 158.322 50.2528C157.907 50.0219 157.586 49.6971 157.36 49.2784C157.134 48.8599 157.021 48.3689 157.021 47.8059C157.021 47.3801 157.083 47.0012 157.207 46.6691C157.339 46.3299 157.524 46.0448 157.765 45.8139C158.005 45.5757 158.297 45.3952 158.639 45.2725C158.982 45.1426 159.365 45.0776 159.787 45.0776C160.028 45.0776 160.286 45.11 160.563 45.175C160.848 45.2399 161.113 45.3482 161.361 45.4998C161.478 45.572 161.554 45.6587 161.591 45.7596C161.627 45.8606 161.634 45.9655 161.613 46.0737C161.591 46.1747 161.544 46.265 161.471 46.3443C161.405 46.4166 161.321 46.4635 161.219 46.4852C161.117 46.4995 161.004 46.4742 160.88 46.4093C160.72 46.3154 160.556 46.247 160.388 46.2037C160.221 46.1531 160.06 46.1278 159.907 46.1278C159.667 46.1278 159.455 46.1674 159.273 46.247C159.091 46.319 158.934 46.4273 158.803 46.5718C158.679 46.7088 158.585 46.882 158.519 47.0913C158.453 47.3007 158.421 47.5426 158.421 47.8168C158.421 48.3509 158.548 48.7732 158.803 49.0835C159.066 49.3866 159.434 49.5382 159.907 49.5382C160.06 49.5382 160.217 49.5166 160.377 49.4733C160.545 49.4299 160.713 49.3613 160.88 49.2677C161.004 49.2027 161.113 49.181 161.208 49.2027C161.31 49.2243 161.394 49.2747 161.46 49.3543C161.525 49.4263 161.565 49.5166 161.58 49.6248C161.594 49.7258 161.58 49.827 161.536 49.928C161.5 50.029 161.427 50.1122 161.318 50.1771C161.077 50.3214 160.822 50.4261 160.552 50.491C160.283 50.556 160.028 50.5883 159.787 50.5883Z" fill="#FE6354"/>
<path d="M151.496 50.5883C150.891 50.5883 150.37 50.4767 149.933 50.2528C149.496 50.029 149.157 49.7115 148.916 49.3C148.683 48.8886 148.566 48.4015 148.566 47.8385C148.566 47.2898 148.679 46.81 148.905 46.3986C149.139 45.9871 149.456 45.666 149.856 45.4348C150.264 45.1966 150.727 45.0776 151.245 45.0776C151.624 45.0776 151.963 45.139 152.261 45.2616C152.567 45.3844 152.826 45.5611 153.037 45.7922C153.256 46.0231 153.42 46.3046 153.529 46.6368C153.646 46.9613 153.704 47.3295 153.704 47.7409C153.704 47.8708 153.657 47.972 153.562 48.0441C153.475 48.109 153.347 48.1416 153.18 48.1416H149.671V47.3621H152.742L152.567 47.5244C152.567 47.1925 152.516 46.9146 152.414 46.6908C152.32 46.4669 152.178 46.2974 151.988 46.182C151.806 46.0592 151.576 45.9978 151.299 45.9978C150.993 45.9978 150.731 46.0701 150.512 46.2144C150.301 46.3516 150.137 46.5501 150.02 46.81C149.911 47.0625 149.856 47.3657 149.856 47.7192V47.7952C149.856 48.3869 149.995 48.8309 150.272 49.1268C150.556 49.4156 150.971 49.5599 151.518 49.5599C151.707 49.5599 151.919 49.5382 152.152 49.4949C152.392 49.4443 152.618 49.3613 152.83 49.246C152.983 49.1594 153.118 49.1231 153.234 49.1377C153.351 49.1448 153.442 49.1847 153.508 49.2567C153.58 49.329 153.624 49.4192 153.639 49.5275C153.653 49.6285 153.631 49.7331 153.573 49.8414C153.522 49.9497 153.431 50.0436 153.3 50.1229C153.045 50.2818 152.749 50.4007 152.414 50.4801C152.086 50.5523 151.78 50.5883 151.496 50.5883Z" fill="#FE6354"/>
<path d="M144.581 50.5886C144.114 50.5886 143.702 50.4767 143.345 50.2531C142.996 50.0292 142.722 49.7117 142.526 49.3003C142.329 48.8815 142.23 48.3908 142.23 47.8278C142.23 47.2575 142.329 46.7704 142.526 46.3662C142.722 45.9548 142.996 45.637 143.345 45.4134C143.702 45.1896 144.114 45.0777 144.581 45.0777C145.025 45.0777 145.411 45.1859 145.739 45.4025C146.075 45.619 146.301 45.9042 146.417 46.2579H146.297V43.4429C146.297 43.219 146.355 43.0494 146.472 42.9341C146.588 42.8185 146.756 42.7609 146.975 42.7609C147.193 42.7609 147.361 42.8185 147.477 42.9341C147.601 43.0494 147.663 43.219 147.663 43.4429V49.874C147.663 50.0978 147.605 50.2711 147.488 50.3937C147.372 50.5093 147.204 50.5669 146.985 50.5669C146.767 50.5669 146.599 50.5093 146.483 50.3937C146.366 50.2711 146.308 50.0978 146.308 49.874V49.0295L146.428 49.3543C146.319 49.7297 146.096 50.0292 145.761 50.2531C145.426 50.4767 145.032 50.5886 144.581 50.5886ZM144.963 49.5601C145.233 49.5601 145.47 49.4952 145.674 49.3652C145.878 49.2353 146.034 49.0441 146.144 48.7913C146.26 48.5314 146.319 48.2103 146.319 47.8278C146.319 47.2504 146.195 46.821 145.947 46.5394C145.699 46.2506 145.371 46.1064 144.963 46.1064C144.694 46.1064 144.457 46.1713 144.253 46.3012C144.049 46.4239 143.888 46.6151 143.772 46.875C143.662 47.1275 143.608 47.4453 143.608 47.8278C143.608 48.3981 143.732 48.8309 143.979 49.127C144.227 49.4156 144.555 49.5601 144.963 49.5601Z" fill="#FE6354"/>
<path d="M134.278 50.5669C134.06 50.5669 133.892 50.5093 133.775 50.3937C133.659 50.2711 133.601 50.0978 133.601 49.874V43.4429C133.601 43.219 133.659 43.0494 133.775 42.9341C133.892 42.8185 134.06 42.7609 134.278 42.7609C134.497 42.7609 134.665 42.8185 134.781 42.9341C134.905 43.0494 134.967 43.219 134.967 43.4429V46.247H134.814C134.974 45.8645 135.222 45.5757 135.557 45.3808C135.9 45.1789 136.286 45.0777 136.716 45.0777C137.146 45.0777 137.499 45.1572 137.776 45.3159C138.053 45.4747 138.261 45.7166 138.399 46.0414C138.538 46.3589 138.607 46.7631 138.607 47.254V49.874C138.607 50.0978 138.549 50.2711 138.432 50.3937C138.316 50.5093 138.148 50.5669 137.929 50.5669C137.711 50.5669 137.539 50.5093 137.416 50.3937C137.299 50.2711 137.241 50.0978 137.241 49.874V47.319C137.241 46.9076 137.161 46.6078 137 46.4202C136.847 46.2326 136.607 46.1387 136.279 46.1387C135.878 46.1387 135.557 46.265 135.317 46.5178C135.084 46.7631 134.967 47.0915 134.967 47.503V49.874C134.967 50.336 134.737 50.5669 134.278 50.5669Z" fill="#FE6354"/>
<path d="M131.134 50.5883C130.573 50.5883 130.084 50.4767 129.669 50.2528C129.254 50.0219 128.933 49.6971 128.707 49.2784C128.481 48.8599 128.368 48.3689 128.368 47.8059C128.368 47.3801 128.43 47.0012 128.554 46.6691C128.685 46.3299 128.871 46.0448 129.112 45.8139C129.352 45.5757 129.643 45.3952 129.986 45.2725C130.329 45.1426 130.711 45.0776 131.134 45.0776C131.374 45.0776 131.633 45.11 131.91 45.175C132.194 45.2399 132.46 45.3482 132.708 45.4998C132.825 45.572 132.901 45.6587 132.937 45.7596C132.974 45.8606 132.981 45.9655 132.959 46.0737C132.937 46.1747 132.89 46.265 132.817 46.3443C132.752 46.4166 132.668 46.4635 132.566 46.4852C132.464 46.4995 132.351 46.4742 132.227 46.4093C132.067 46.3154 131.903 46.247 131.735 46.2037C131.567 46.1531 131.407 46.1278 131.254 46.1278C131.014 46.1278 130.802 46.1674 130.62 46.247C130.438 46.319 130.281 46.4273 130.15 46.5718C130.026 46.7088 129.931 46.882 129.866 47.0913C129.8 47.3007 129.767 47.5426 129.767 47.8168C129.767 48.3509 129.895 48.7732 130.15 49.0835C130.412 49.3866 130.78 49.5382 131.254 49.5382C131.407 49.5382 131.564 49.5166 131.724 49.4733C131.892 49.4299 132.059 49.3613 132.227 49.2677C132.351 49.2027 132.46 49.181 132.555 49.2027C132.657 49.2243 132.741 49.2747 132.806 49.3543C132.872 49.4263 132.912 49.5166 132.927 49.6248C132.941 49.7258 132.927 49.827 132.883 49.928C132.846 50.029 132.774 50.1122 132.664 50.1771C132.424 50.3214 132.169 50.4261 131.899 50.491C131.629 50.556 131.374 50.5883 131.134 50.5883Z" fill="#FE6354"/>
<path d="M124.663 50.5883C124.277 50.5883 123.931 50.5163 123.625 50.372C123.326 50.2204 123.089 50.0183 122.914 49.7657C122.747 49.5129 122.663 49.228 122.663 48.9102C122.663 48.5205 122.765 48.2137 122.969 47.99C123.173 47.7591 123.505 47.593 123.964 47.492C124.423 47.391 125.039 47.3404 125.811 47.3404H126.358V48.12H125.822C125.37 48.12 125.01 48.1416 124.74 48.1849C124.47 48.2282 124.277 48.3039 124.161 48.4122C124.051 48.5134 123.997 48.6577 123.997 48.8453C123.997 49.0835 124.081 49.2784 124.248 49.4299C124.416 49.5815 124.649 49.6574 124.948 49.6574C125.188 49.6574 125.399 49.6032 125.582 49.4949C125.771 49.3793 125.92 49.2243 126.03 49.0295C126.139 48.8346 126.194 48.6107 126.194 48.3582V47.1129C126.194 46.7521 126.114 46.4922 125.953 46.3336C125.793 46.1747 125.523 46.0954 125.144 46.0954C124.933 46.0954 124.704 46.1205 124.456 46.1711C124.215 46.2217 123.96 46.3083 123.691 46.4309C123.552 46.4959 123.428 46.5139 123.319 46.4852C123.217 46.4562 123.137 46.3986 123.078 46.3119C123.02 46.218 122.991 46.1171 122.991 46.0088C122.991 45.9005 123.02 45.7957 123.078 45.6947C123.137 45.5864 123.235 45.5071 123.374 45.4565C123.709 45.3195 124.029 45.2219 124.336 45.1643C124.649 45.1064 124.933 45.0776 125.188 45.0776C125.713 45.0776 126.143 45.157 126.478 45.3158C126.821 45.4745 127.076 45.7163 127.243 46.0411C127.411 46.3587 127.495 46.7701 127.495 47.2754V49.874C127.495 50.0976 127.44 50.2708 127.331 50.3937C127.221 50.509 127.065 50.5667 126.861 50.5667C126.656 50.5667 126.496 50.509 126.38 50.3937C126.27 50.2708 126.216 50.0976 126.216 49.874V49.3543H126.303C126.252 49.6068 126.15 49.827 125.997 50.0146C125.851 50.1951 125.665 50.3358 125.439 50.4368C125.214 50.538 124.955 50.5883 124.663 50.5883Z" fill="#FE6354"/>
<path d="M119.262 50.5883C118.708 50.5883 118.227 50.4767 117.819 50.2528C117.411 50.029 117.094 49.7115 116.868 49.3C116.642 48.8815 116.529 48.3905 116.529 47.8275C116.529 47.4017 116.591 47.0229 116.715 46.6908C116.846 46.3516 117.032 46.0628 117.273 45.8246C117.513 45.5793 117.801 45.3952 118.136 45.2725C118.471 45.1426 118.847 45.0776 119.262 45.0776C119.816 45.0776 120.297 45.1896 120.705 45.4132C121.113 45.637 121.43 45.9545 121.656 46.366C121.882 46.7774 121.995 47.2645 121.995 47.8275C121.995 48.2535 121.929 48.636 121.798 48.9752C121.674 49.3144 121.492 49.6068 121.252 49.8523C121.011 50.0905 120.723 50.2745 120.388 50.4044C120.053 50.527 119.677 50.5883 119.262 50.5883ZM119.262 49.5599C119.532 49.5599 119.769 49.4949 119.973 49.365C120.177 49.2351 120.333 49.0438 120.443 48.7913C120.559 48.5314 120.618 48.2102 120.618 47.8275C120.618 47.2501 120.494 46.8207 120.246 46.5392C119.998 46.2504 119.67 46.1061 119.262 46.1061C118.992 46.1061 118.755 46.1711 118.552 46.301C118.347 46.4236 118.187 46.6151 118.071 46.875C117.961 47.1275 117.906 47.445 117.906 47.8275C117.906 48.3978 118.031 48.8309 118.278 49.1268C118.526 49.4156 118.854 49.5599 119.262 49.5599Z" fill="#FE6354"/>
<path d="M114.464 50.5883C113.903 50.5883 113.415 50.4767 112.999 50.2528C112.584 50.0219 112.263 49.6971 112.037 49.2784C111.811 48.8599 111.698 48.3689 111.698 47.8059C111.698 47.3801 111.76 47.0012 111.884 46.6691C112.015 46.3299 112.201 46.0448 112.442 45.8139C112.682 45.5757 112.974 45.3952 113.316 45.2725C113.659 45.1426 114.041 45.0776 114.464 45.0776C114.704 45.0776 114.963 45.11 115.24 45.175C115.524 45.2399 115.79 45.3482 116.038 45.4998C116.155 45.572 116.231 45.6587 116.268 45.7596C116.304 45.8606 116.311 45.9655 116.29 46.0737C116.268 46.1747 116.22 46.265 116.147 46.3443C116.082 46.4166 115.998 46.4635 115.896 46.4852C115.794 46.4995 115.681 46.4742 115.557 46.4093C115.397 46.3154 115.233 46.247 115.065 46.2037C114.898 46.1531 114.737 46.1278 114.584 46.1278C114.344 46.1278 114.132 46.1674 113.95 46.247C113.768 46.319 113.611 46.4273 113.48 46.5718C113.356 46.7088 113.262 46.882 113.196 47.0913C113.13 47.3007 113.097 47.5426 113.097 47.8168C113.097 48.3509 113.225 48.7732 113.48 49.0835C113.743 49.3866 114.111 49.5382 114.584 49.5382C114.737 49.5382 114.894 49.5166 115.054 49.4733C115.222 49.4299 115.389 49.3613 115.557 49.2677C115.681 49.2027 115.79 49.181 115.885 49.2027C115.987 49.2243 116.071 49.2747 116.136 49.3543C116.202 49.4263 116.242 49.5166 116.257 49.6248C116.271 49.7258 116.257 49.827 116.213 49.928C116.177 50.029 116.104 50.1122 115.994 50.1771C115.754 50.3214 115.499 50.4261 115.229 50.491C114.96 50.556 114.704 50.5883 114.464 50.5883Z" fill="#FE6354"/>
</svg>
