<?xml version="1.0" encoding="utf-8"?>
<!-- Generator: Adobe Illustrator 16.0.4, SVG Export Plug-In . SVG Version: 6.00 Build 0)  -->
<!DOCTYPE svg PUBLIC "-//W3C//DTD SVG 1.1//EN" "http://www.w3.org/Graphics/SVG/1.1/DTD/svg11.dtd">
<svg version="1.1" xmlns="http://www.w3.org/2000/svg" xmlns:xlink="http://www.w3.org/1999/xlink" x="0px" y="0px"
	 width="420.312px" height="125.781px" viewBox="0 0 420.312 125.781" enable-background="new 0 0 420.312 125.781"
	 xml:space="preserve">
<g id="Layer_1">
	<g>
		<g>
			<path fill="#112A4B" d="M99.532,31.283h2.076l3.314,12.942c0.519,1.96,0.98,3.891,1.297,5.361h0.058
				c0.288-1.441,0.749-3.401,1.239-5.333l3.17-12.971h2.162l3.228,13.086c0.49,1.931,0.922,3.603,1.21,5.217h0.058
				c0.375-1.701,0.778-3.229,1.239-5.131l3.344-13.172h1.96l-5.649,21.33h-1.932l-4.525-18.505h-0.058l-4.583,18.505h-1.932
				L99.532,31.283z"/>
			<path fill="#112A4B" d="M127.04,31.773h2.104v2.133h-2.104V31.773z M127.098,37.423h1.989v15.19h-1.989V37.423z"/>
			<path fill="#112A4B" d="M133.484,31.283h1.989v21.33h-1.989V31.283z"/>
			<path fill="#112A4B" d="M139.865,31.283h1.989v21.33h-1.989V31.283z"/>
			<path fill="#112A4B" d="M146.194,31.773h2.104v2.133h-2.104V31.773z M146.252,37.423h1.989v15.19h-1.989V37.423z"/>
			<path fill="#112A4B" d="M151.601,49.067c0-2.998,2.565-5.188,10.291-6.37v-0.778c0-2.104-1.096-3.113-3.084-3.113
				c-2.392,0-4.093,1.009-5.678,2.393l-1.066-1.24c1.816-1.672,3.92-2.825,6.917-2.825c3.401,0,4.872,1.816,4.872,4.842v6.889
				c0,1.845,0.115,2.969,0.432,3.747h-2.046c-0.202-0.634-0.346-1.297-0.346-2.162c-1.758,1.585-3.718,2.421-5.996,2.421
				C153.186,52.872,151.601,51.431,151.601,49.067z M161.891,48.837V44.11c-6.514,1.095-8.33,2.709-8.33,4.698
				c0,1.585,1.066,2.421,2.767,2.421C158.461,51.229,160.334,50.336,161.891,48.837z"/>
			<path fill="#112A4B" d="M168.013,37.423h1.989v2.392c1.527-1.499,3.286-2.681,5.563-2.681c2.565,0,3.718,1.124,4.179,2.738
				c1.585-1.499,3.488-2.738,5.736-2.738c3.113,0,4.381,1.758,4.381,4.497v10.982h-1.989V42.006c0-2.133-0.721-3.171-2.854-3.171
				c-1.845,0-3.373,1.009-5.073,2.652v11.126h-1.989V42.006c0-2.133-0.72-3.171-2.882-3.171c-1.816,0-3.372,1.009-5.073,2.652
				v11.126h-1.989V37.423z"/>
			<path fill="#112A4B" d="M148.002,65.561h7.091c4.641,0,7.465,1.902,7.465,5.822c0,4.294-3.171,6.053-7.667,6.053h-4.842v9.454
				h-2.046V65.561z M155.036,75.619c3.516,0,5.477-1.095,5.477-4.18c0-2.882-1.932-4.006-5.505-4.006h-4.958v8.186H155.036z"/>
			<path fill="#112A4B" d="M165.757,66.05h2.104v2.134h-2.104V66.05z M165.815,71.699h1.989v15.19h-1.989V71.699z"/>
			<path fill="#112A4B" d="M173.268,83.344V73.4h-2.652v-1.701h2.652v-5.447h1.989v5.447h3.949V73.4h-3.949v9.541
				c0,1.613,0.519,2.479,2.392,2.479c0.577,0,1.153-0.059,1.585-0.202v1.7c-0.461,0.087-1.268,0.174-1.96,0.174
				C174.363,87.092,173.268,85.967,173.268,83.344z"/>
			<path fill="#112A4B" d="M184.096,83.344V73.4h-2.652v-1.701h2.652v-5.447h1.989v5.447h3.949V73.4h-3.949v9.541
				c0,1.613,0.519,2.479,2.392,2.479c0.577,0,1.153-0.059,1.585-0.202v1.7c-0.461,0.087-1.268,0.174-1.96,0.174
				C185.191,87.092,184.096,85.967,184.096,83.344z"/>
		</g>
		<g>
			<rect x="210.256" y="27.335" fill="#112A4B" width="0.9" height="59.42"/>
		</g>
		<g>
			<polygon fill="#112A4B" points="385.626,36.35 381.534,46.257 382.495,46.257 390.271,36.35 			"/>
			<path fill="#112A4B" d="M240.898,60.36c-2.62,0-4.933-0.654-6.635-1.526l-1.7,1.526h-0.786l-0.524-9.688l0.915-0.087
				c2.751,6.285,5.98,8.292,8.992,8.292c3.144,0,4.977-2.05,4.977-4.8c0-2.62-1.005-3.886-5.107-5.587
				c-1.396-0.567-3.012-1.134-4.364-1.789c-3.056-1.528-4.671-3.929-4.671-7.114c0-5.195,4.496-8.337,8.904-8.337
				c2.184,0,3.666,0.611,5.107,1.44l1.702-1.483h0.741l0.743,8.554l-0.874,0.131c-2.399-4.801-4.975-7.159-7.812-7.159
				c-2.489,0-4.148,1.659-4.148,4.234c0,2.052,0.876,3.624,3.972,4.977c1.528,0.699,3.32,1.31,4.935,2.095
				c3.533,1.703,5.193,3.928,5.193,7.158C250.458,56.956,245.613,60.36,240.898,60.36"/>
			<path fill="#112A4B" d="M263.989,40.545c-3.056,0-4.932,3.405-4.932,9.385c0,5.892,2.008,9.25,5.106,9.25
				c3.187,0,4.933-3.401,4.933-9.382C269.097,43.907,267.22,40.545,263.989,40.545 M263.814,60.406
				c-6.634,0-9.906-4.758-9.906-10.564c0-5.369,3.751-10.519,10.473-10.519c6.635,0,9.822,4.714,9.822,10.476
				C274.203,55.211,270.536,60.406,263.814,60.406"/>
			<path fill="#112A4B" d="M283.674,60.229c-3.447,0-4.538-1.701-4.538-4.844V42.334h-3.229v-0.609l4.016-3.187l3.186-4.147h0.654
				v5.674h6.636v2.269h-6.636v11.307c0,1.745,0.262,2.792,1.135,3.403c0.744,0.524,1.747,0.7,3.188,0.7
				c0.698,0,1.572-0.044,2.401-0.089l0.043,0.612C288.825,59.312,286.032,60.229,283.674,60.229"/>
			<path fill="#112A4B" d="M304.059,42.641c-1.658,0-2.923,0.306-4.539,1.092v14.446l2.443,0.917v0.61h-9.864v-0.61l2.75-0.917
				V31.816l-3.012-1.964v-0.437l7.509-2.051l0.174,0.131v15.276l0.176,0.087c2.574-2.444,4.931-3.535,7.288-3.535
				c3.928,0,5.588,2.969,5.588,6.067v12.789l2.751,0.917v0.61h-9.867v-0.61l2.447-0.917V47.18
				C307.902,44.343,306.766,42.641,304.059,42.641"/>
			<path fill="#112A4B" d="M330.469,46.874c-0.174-4.103-1.354-6.329-3.929-6.329c-2.532,0-4.495,2.663-4.714,6.723L330.469,46.874
				L330.469,46.874z M321.784,48.358c0,5.543,1.569,9.166,6.503,9.166c2.182,0,3.973-0.437,6.591-1.397l0.261,0.524
				c-2.661,2.313-5.629,3.755-8.424,3.755c-5.979,0-9.91-4.104-9.91-10.171c0-6.242,4.717-10.912,10.04-10.912
				c5.765,0,8.556,3.884,8.512,9.035H321.784L321.784,48.358z"/>
			<path fill="#112A4B" d="M347.709,42.379c-1.308,0-2.399,0.262-3.446,0.698v13.835c1.351,1.397,3.099,2.007,4.757,2.007
				c2.575,0,4.714-2.312,4.714-8.467C353.733,45.041,351.421,42.379,347.709,42.379 M346.969,60.406
				c-2.268,0-5.282-0.527-7.377-1.136V31.816l-3.055-1.964v-0.437l7.55-2.051l0.176,0.131v14.622l0.177,0.088
				c1.525-1.528,3.621-2.881,6.327-2.881c4.146,0,7.899,3.798,7.899,10.039C358.666,55.604,353.953,60.406,346.969,60.406"/>
			<path fill="#112A4B" d="M370.626,61.058c-2.183,5.37-4.231,7.727-6.939,7.727c-2.313,0-3.403-1.354-3.403-2.75
				c0-1.354,1.223-2.486,2.617-2.486c1.485,0,2.357,0.783,3.406,2.093c0.826-0.915,1.832-2.486,2.4-3.712l0.741-1.654l-7.725-18.638
				l-2.664-1.047v-0.568h10.649v0.568l-2.793,1.047l4.714,12.789h0.218l4.278-12.483l-2.53-1.353v-0.568h7.506v0.568l-2.837,1.44
				L370.626,61.058L370.626,61.058z"/>
			<path fill="#112A4B" d="M395.511,60.406c-2.399,0-4.453-0.396-6.461-1.181l-0.043-5.761l0.874-0.086
				c2.355,4.146,4.146,5.717,6.459,5.717c2.052,0,3.317-1.309,3.317-3.316c0-2.271-2.313-3.143-4.801-4.147
				c-2.75-1.179-5.675-2.488-5.675-6.11c0-3.448,3.055-6.198,7.508-6.198c1.702,0,4.102,0.35,5.28,0.786l0.131,5.194l-0.828,0.218
				c-2.139-3.535-3.535-4.889-5.545-4.889c-1.831,0-2.967,1.223-2.967,2.793c0,2.27,2.356,3.187,4.843,4.191
				c2.753,1.135,5.72,2.443,5.72,6.154C403.323,57.831,399.744,60.406,395.511,60.406"/>
			<path fill="#112A4B" d="M231.81,86.752h0.976V76.594h-0.976V86.752L231.81,86.752z M236.297,86.752h0.922v-8.635h0.027
				l5.778,8.635h0.865V76.594h-0.921v8.373h-0.027l-5.602-8.373h-1.043V86.752L236.297,86.752z M249.365,86.752h0.974v-9.254h3.281
				v-0.904h-7.536v0.904h3.281V86.752L249.365,86.752z M255.815,86.752h6.354v-0.894h-5.38v-4.035h3.803v-0.878h-3.803v-3.447h5.093
				v-0.904h-6.067V86.752L255.815,86.752z M264.809,86.752h0.959v-4.56h2.524l2.485,4.56h1.099l-2.566-4.669
				c1.468-0.273,2.428-1.097,2.428-2.744c0-1.784-1.264-2.745-3.527-2.745h-3.401V86.752L264.809,86.752z M265.768,81.328v-3.844
				h2.36c1.702,0,2.636,0.496,2.636,1.896c0,1.469-0.947,1.947-2.621,1.947H265.768L265.768,81.328z M275.114,86.752h0.921v-8.635
				h0.027l5.778,8.635h0.864V76.594h-0.921v8.373h-0.027l-5.598-8.373h-1.045V86.752L275.114,86.752z M285.327,86.752h0.948
				l1.083-3.131h4.118l1.083,3.131h1.018l-3.598-10.199h-1.057L285.327,86.752L285.327,86.752z M287.66,82.757l1.744-5.051h0.026
				l1.743,5.051H287.66L287.66,82.757z M297.488,86.752h0.975v-9.254h3.281v-0.904h-7.538v0.904h3.282V86.752L297.488,86.752z
				 M304.076,86.752h0.974V76.594h-0.974V86.752L304.076,86.752z M312.257,86.942c2.485,0,4.282-2.085,4.282-5.27
				c0-3.184-1.797-5.271-4.282-5.271c-2.484,0-4.282,2.087-4.282,5.271C307.975,84.857,309.772,86.942,312.257,86.942
				L312.257,86.942z M312.257,86.064c-1.922,0-3.309-1.633-3.309-4.392c0-2.76,1.387-4.381,3.309-4.381s3.307,1.621,3.307,4.381
				C315.563,84.432,314.179,86.064,312.257,86.064L312.257,86.064z M319.656,86.752h0.919v-8.635h0.029l5.775,8.635h0.865V76.594
				h-0.92v8.373h-0.027l-5.599-8.373h-1.043V86.752L319.656,86.752z M329.883,86.752h0.945l1.085-3.131h4.116l1.084,3.131h1.017
				l-3.596-10.199h-1.057L329.883,86.752L329.883,86.752z M332.214,82.757l1.744-5.051h0.029l1.741,5.051H332.214L332.214,82.757z
				 M340.834,86.752h5.943v-0.894h-4.969v-9.265h-0.975V86.752L340.834,86.752z M352.597,86.752h0.96v-4.56h2.526l2.484,4.56h1.096
				l-2.564-4.669c1.469-0.273,2.429-1.097,2.429-2.744c0-1.784-1.261-2.745-3.526-2.745h-3.404V86.752L352.597,86.752z
				 M353.557,81.328v-3.844h2.361c1.703,0,2.636,0.496,2.636,1.896c0,1.469-0.948,1.947-2.621,1.947H353.557L353.557,81.328z
				 M362.63,86.752h6.356v-0.894h-5.382v-4.035h3.801v-0.878h-3.801v-3.447h5.093v-0.904h-6.067V86.752L362.63,86.752z
				 M370.234,86.752h0.946l1.086-3.131h4.117l1.084,3.131h1.016l-3.596-10.199h-1.058L370.234,86.752L370.234,86.752z
				 M372.568,82.757l1.743-5.051h0.027l1.742,5.051H372.568L372.568,82.757z M380.941,86.752h5.941v-0.894h-4.968v-9.265h-0.974
				V86.752L380.941,86.752z M389.602,86.752h0.974v-9.254h3.281v-0.904h-7.535v0.904h3.28V86.752L389.602,86.752z M398.372,86.752
				h0.975v-4.476l3.418-5.683h-1.045l-2.84,4.847l-2.855-4.847h-1.056l3.403,5.683V86.752L398.372,86.752z"/>
		</g>
		<g>
			<path fill="#112A4B" d="M69.815,27.312l-1.564,11.321c-3.446-5.528-9.103-9.654-9.103-9.654c2.185,3.141,3.434,6.183,4.129,8.827
				c-2.368-2.463-6.421-2.957-6.421-2.957c1.2,1.55,2.508,2.69,3.708,3.533c-4.51-2.093-7.734-1.517-7.734-1.517
				c2.699,1.218,4.869,2.889,6.543,4.526c-1.094-0.034-4.129-0.049-8.955,0.431c0,0,5.474,2.354,12.805,4.757
				c2.155-1.13,4.546-1.776,7.069-1.787c1.8-0.013,3.538,0.296,5.175,0.871c-0.007-0.075-0.012-0.153-0.018-0.231
				c0.01,0.083,0.021,0.164,0.029,0.244c0.605,0.212,1.197,0.467,1.771,0.757c2.166-0.647,11.693-4.411,11.693-4.411
				c-3.999-0.706-7.514-0.389-8.955-0.206c3.295-3.414,6.464-4.782,6.464-4.782c-3.529,0-6.175,0.9-7.973,1.844
				c1.732-1.622,3.402-4.472,3.402-4.472c-2.662,0.777-4.25,1.97-5.202,3.119c1.5-4.601,3.813-8.134,3.813-8.134
				c-2.438,2.01-6.412,6.634-8.87,9.604c0.115-0.256,0.174-0.422,0.174-0.422L69.815,27.312"/>
			<path fill="#112A4B" d="M82.044,54.512c-1.374-2.194-2.989-3.924-4.8-5.143c-2.033-1.368-4.276-2.061-6.669-2.061
				c-0.07,0-0.141,0-0.211,0.001c-2.148,0.037-4.194,0.575-6.082,1.599c-1.852,1.005-3.504,2.452-4.912,4.301
				c-1.412,1.856-2.542,4.071-3.359,6.585c-0.84,2.587-1.332,5.442-1.46,8.485c-0.11,2.595,0.193,5.175,0.876,7.46
				c0.771,2.582,2,4.773,3.651,6.513c1.329,1.4,2.926,2.491,4.748,3.243c1.966,0.811,4.214,1.234,6.683,1.259
				c0.069,0,0.137,0.001,0.204,0.001c2.295,0,4.393-0.367,6.235-1.09c1.762-0.691,3.31-1.716,4.6-3.045
				c1.613-1.663,2.822-3.793,3.594-6.331c0.733-2.413,1.06-5.149,0.97-8.136C85.969,63.45,84.448,58.351,82.044,54.512z
				 M83.569,63.27l-0.002,0.004h-0.442l-0.002-0.004c-0.009-0.015-0.971-1.523-2.763-2.664l-0.005-0.003l0.002-0.006
				c0.002-0.006,0.205-0.658,0.654-1.388c0.337-0.548,0.874-1.232,1.629-1.669c0.695,1.492,1.267,3.097,1.693,4.742
				C84.064,62.579,83.801,62.91,83.569,63.27z M84.573,63.289c0.208,0.944,0.368,1.896,0.475,2.843
				c-0.384-0.355-0.844-0.729-1.379-1.068l-0.005-0.003l0.002-0.006c0.002-0.007,0.206-0.657,0.656-1.388
				C84.396,63.546,84.479,63.419,84.573,63.289z M64.982,66.835c0.574,0.451,1.361,1.295,1.852,2.748l0.002,0.006l-0.005,0.003
				c-0.016,0.01-1.613,1.027-2.618,2.595l-0.003,0.004h-0.444l-0.002-0.004c-0.009-0.015-0.973-1.523-2.763-2.666l-0.005-0.004
				l0.001-0.006c0.002-0.006,0.206-0.655,0.656-1.386c0.416-0.674,1.131-1.556,2.186-1.931l0.002-0.001l0.002,0.001
				C63.848,66.196,64.36,66.345,64.982,66.835z M64.177,65.061l0.002-0.006c0.001-0.007,0.205-0.657,0.655-1.388
				c0.416-0.675,1.132-1.557,2.187-1.932l0.002-0.001l0.002,0.001c0.005,0.001,0.518,0.15,1.14,0.642
				c0.574,0.453,1.36,1.299,1.851,2.754l0.002,0.006l-0.005,0.004c-0.017,0.01-1.612,1.022-2.618,2.586l-0.002,0.003h-0.445
				l-0.002-0.003c-0.009-0.016-0.969-1.523-2.764-2.663L64.177,65.061z M64.306,73.844c0.002-0.007,0.206-0.658,0.656-1.389
				c0.417-0.675,1.133-1.557,2.187-1.929l0.002-0.001l0.002,0.001c0.005,0.001,0.518,0.149,1.14,0.64
				c0.574,0.452,1.36,1.296,1.851,2.748l0.002,0.006l-0.006,0.004c-0.016,0.01-1.611,1.028-2.618,2.592l-0.002,0.004h-0.441
				l-0.003-0.004c-0.009-0.016-0.974-1.524-2.767-2.662l-0.005-0.004L64.306,73.844z M67.494,69.521l-0.005-0.004l0.002-0.006
				c0.002-0.006,0.205-0.655,0.655-1.386c0.416-0.674,1.132-1.556,2.187-1.931l0.002-0.001l0.003,0.001
				c0.005,0.002,0.518,0.149,1.14,0.639c0.574,0.453,1.36,1.296,1.851,2.75l0.002,0.006l-0.005,0.003
				c-0.017,0.01-1.614,1.027-2.62,2.595l-0.002,0.004h-0.444l-0.002-0.004C70.248,72.172,69.291,70.663,67.494,69.521z
				 M70.676,65.063l-0.005-0.003l0.002-0.006c0.001-0.007,0.206-0.657,0.656-1.388c0.416-0.675,1.133-1.557,2.189-1.932l0.002-0.001
				l0.002,0.001c0.005,0.001,0.518,0.15,1.14,0.642c0.574,0.453,1.36,1.299,1.851,2.754l0.002,0.006l-0.005,0.004
				c-0.016,0.01-1.613,1.022-2.621,2.586l-0.002,0.003h-0.442l-0.002-0.003C73.433,67.711,72.473,66.203,70.676,65.063z
				 M73.984,69.511c0.002-0.006,0.206-0.656,0.656-1.386c0.417-0.675,1.134-1.557,2.19-1.931l0.002-0.001l0.002,0.001
				c0.005,0.002,0.518,0.149,1.14,0.639c0.574,0.453,1.361,1.296,1.852,2.75l0.002,0.006l-0.005,0.003
				c-0.016,0.01-1.616,1.027-2.622,2.595L77.2,72.19h-0.445l-0.002-0.004c-0.009-0.015-0.966-1.523-2.764-2.666l-0.005-0.004
				L73.984,69.511z M77.071,63.273h-0.444l-0.002-0.004c-0.01-0.015-0.969-1.523-2.765-2.664l-0.005-0.003l0.002-0.006
				c0.001-0.006,0.207-0.658,0.658-1.388c0.417-0.674,1.134-1.556,2.188-1.928l0.002-0.001l0.003,0
				c0.005,0.002,0.517,0.15,1.139,0.64c0.573,0.452,1.358,1.296,1.848,2.75l0.002,0.006l-0.006,0.003
				c-0.015,0.01-1.61,1.023-2.617,2.59L77.071,63.273z M76.378,56.22c-0.016,0.01-1.611,1.032-2.615,2.591l-0.002,0.004h-0.445
				l-0.002-0.004c-0.009-0.015-0.967-1.523-2.766-2.665l-0.005-0.003l0.001-0.006c0.002-0.007,0.207-0.657,0.658-1.387
				c0.417-0.674,1.135-1.556,2.189-1.928l0.002-0.001l0.002,0c0.005,0.001,0.519,0.15,1.14,0.64
				c0.573,0.452,1.359,1.296,1.845,2.749l0.002,0.006L76.378,56.22z M71.352,57.92c0.574,0.452,1.361,1.296,1.852,2.75l0.002,0.006
				L73.2,60.679c-0.016,0.01-1.617,1.023-2.623,2.59l-0.002,0.004h-0.443l-0.002-0.004c-0.01-0.015-0.968-1.523-2.764-2.664
				l-0.005-0.003l0.002-0.006c0.001-0.006,0.206-0.658,0.656-1.388c0.416-0.674,1.134-1.556,2.188-1.928l0.002-0.001l0.003,0
				C70.217,57.282,70.73,57.43,71.352,57.92z M69.891,56.22c-0.017,0.01-1.617,1.032-2.623,2.591l-0.002,0.004h-0.444l-0.002-0.004
				c-0.009-0.015-0.969-1.523-2.766-2.665l-0.005-0.003l0.002-0.006c0.002-0.007,0.206-0.657,0.656-1.387
				c0.417-0.674,1.134-1.556,2.19-1.928l0.002-0.001l0.002,0c0.005,0.001,0.518,0.15,1.14,0.64c0.574,0.452,1.361,1.296,1.854,2.749
				l0.002,0.006L69.891,56.22z M64.854,57.92c0.574,0.452,1.36,1.296,1.851,2.75l0.002,0.006l-0.005,0.003
				c-0.016,0.01-1.611,1.023-2.618,2.59l-0.002,0.004h-0.443l-0.002-0.004c-0.01-0.015-0.968-1.523-2.764-2.664l-0.005-0.003
				l0.001-0.006c0.002-0.006,0.206-0.658,0.655-1.388c0.415-0.674,1.131-1.556,2.186-1.928l0.002-0.001l0.002,0
				C63.719,57.282,64.232,57.43,64.854,57.92z M61.546,62.377c0.573,0.453,1.359,1.299,1.848,2.754l0.002,0.006l-0.005,0.004
				c-0.016,0.01-1.613,1.022-2.617,2.586l-0.002,0.003h-0.446l-0.002-0.003c-0.009-0.016-0.969-1.523-2.765-2.663l-0.005-0.003
				l0.002-0.006c0.001-0.007,0.205-0.657,0.655-1.388c0.416-0.675,1.134-1.557,2.191-1.932l0.002-0.001l0.002,0.001
				C60.412,61.737,60.925,61.886,61.546,62.377z M60.525,70.526l0.002-0.001l0.003,0.001c0.005,0.001,0.518,0.149,1.14,0.64
				c0.573,0.452,1.36,1.296,1.851,2.748l0.002,0.006l-0.005,0.004c-0.017,0.01-1.613,1.028-2.616,2.592L60.9,76.52h-0.445
				l-0.002-0.004c-0.01-0.016-0.974-1.524-2.766-2.662l-0.005-0.004l0.002-0.006c0.002-0.007,0.206-0.658,0.656-1.389
				C58.755,71.78,59.472,70.898,60.525,70.526z M61.119,78.302c0.002-0.006,0.206-0.658,0.657-1.39
				c0.416-0.675,1.134-1.558,2.191-1.929l0.002-0.002l0.002,0.001c0.005,0.002,0.518,0.15,1.139,0.641
				c0.574,0.451,1.36,1.295,1.851,2.748l0.002,0.006l-0.006,0.003c-0.016,0.011-1.616,1.028-2.623,2.594l-0.002,0.004h-0.441
				l-0.002-0.004c-0.009-0.016-0.968-1.525-2.766-2.662l-0.005-0.003L61.119,78.302z M64.563,82.759
				c0.002-0.007,0.205-0.658,0.654-1.39c0.415-0.675,1.132-1.558,2.188-1.93l0.002-0.001h0.003c0.005,0.002,0.518,0.15,1.14,0.643
				c0.574,0.452,1.361,1.298,1.851,2.753l0.002,0.006l-0.005,0.003c-0.016,0.011-1.611,1.021-2.622,2.585l-0.002,0.004H67.33
				l-0.002-0.004c-0.009-0.015-0.968-1.521-2.761-2.66l-0.005-0.003L64.563,82.759z M70.383,80.978l-0.002-0.004
				c-0.009-0.016-0.969-1.525-2.759-2.662l-0.005-0.004l0.001-0.006c0.002-0.006,0.206-0.658,0.655-1.39
				c0.415-0.675,1.131-1.558,2.185-1.929l0.002-0.002l0.002,0.001c0.005,0.002,0.518,0.15,1.141,0.641
				c0.574,0.451,1.361,1.295,1.853,2.748l0.002,0.006l-0.006,0.003c-0.016,0.011-1.612,1.028-2.617,2.594l-0.002,0.004H70.383z
				 M70.805,73.854l-0.005-0.004l0.001-0.006c0.002-0.007,0.206-0.658,0.656-1.389c0.416-0.675,1.132-1.557,2.185-1.929l0.003-0.001
				l0.002,0.001c0.005,0.001,0.518,0.149,1.14,0.64c0.574,0.452,1.361,1.296,1.852,2.748l0.003,0.006l-0.006,0.004
				c-0.016,0.01-1.611,1.028-2.618,2.592l-0.002,0.004h-0.442l-0.002-0.004C73.562,76.5,72.603,74.991,70.805,73.854z
				 M74.112,78.302c0.002-0.006,0.206-0.658,0.656-1.39c0.416-0.675,1.133-1.558,2.188-1.929l0.002-0.002l0.003,0.001
				c0.005,0.002,0.518,0.15,1.14,0.641c0.574,0.451,1.36,1.295,1.85,2.748l0.002,0.006l-0.005,0.003
				c-0.016,0.011-1.612,1.028-2.618,2.594l-0.003,0.004h-0.443l-0.002-0.004c-0.009-0.016-0.967-1.525-2.764-2.662l-0.005-0.003
				L74.112,78.302z M77.299,73.854l-0.005-0.004l0.002-0.006c0.002-0.007,0.206-0.658,0.656-1.389
				c0.417-0.675,1.135-1.557,2.19-1.929l0.003-0.001l0.002,0.001c0.005,0.001,0.519,0.149,1.14,0.64
				c0.574,0.452,1.36,1.296,1.85,2.748l0.002,0.006l-0.005,0.004c-0.016,0.01-1.613,1.028-2.621,2.592L80.51,76.52h-0.442
				l-0.002-0.004C80.056,76.5,79.098,74.991,77.299,73.854z M80.382,67.729h-0.444l-0.002-0.003
				c-0.01-0.016-0.965-1.523-2.766-2.663l-0.005-0.003l0.002-0.006c0.001-0.007,0.207-0.657,0.658-1.388
				c0.417-0.675,1.135-1.557,2.19-1.932l0.003-0.001l0.002,0.001c0.005,0.001,0.518,0.15,1.139,0.642
				c0.573,0.453,1.358,1.299,1.846,2.754l0.002,0.006l-0.006,0.004c-0.016,0.01-1.611,1.022-2.616,2.586L80.382,67.729z
				 M80.256,58.812l-0.002,0.004h-0.439l-0.002-0.004c-0.01-0.015-0.973-1.523-2.765-2.665l-0.005-0.003l0.002-0.006
				c0.001-0.007,0.205-0.657,0.655-1.387c0.395-0.64,1.061-1.468,2.031-1.868c0.595,0.71,1.109,1.439,1.547,2.138
				c0.335,0.535,0.652,1.096,0.95,1.677C81.668,57.145,80.859,57.882,80.256,58.812z M76.946,54.481l-0.002,0.004h-0.443
				l-0.002-0.004c-0.01-0.015-0.97-1.524-2.764-2.663l-0.005-0.003l0.002-0.006c0.001-0.007,0.206-0.657,0.656-1.387
				c0.214-0.349,0.51-0.752,0.891-1.113c1.517,0.728,2.793,1.764,3.849,2.893C78.58,52.615,77.629,53.421,76.946,54.481z
				 M73.633,50.027l-0.002,0.003h-0.439l-0.002-0.003c-0.007-0.012-0.533-0.839-1.529-1.729c1.009,0.098,1.944,0.329,2.808,0.661
				C74.175,49.275,73.886,49.633,73.633,50.027z M73.071,51.885l0.002,0.006l-0.005,0.003c-0.016,0.01-1.611,1.021-2.618,2.587
				l-0.002,0.004h-0.442l-0.003-0.004c-0.009-0.015-0.968-1.524-2.765-2.663l-0.005-0.003l0.002-0.006
				c0.002-0.007,0.206-0.657,0.657-1.387c0.417-0.674,1.133-1.557,2.188-1.932l0.002-0.001l0.003,0
				c0.004,0.001,0.518,0.15,1.139,0.641C71.797,49.584,72.583,50.43,73.071,51.885z M67.141,50.027l-0.002,0.003h-0.446
				l-0.003-0.003C66.685,50.02,66.45,49.649,66,49.14c0.811-0.328,1.649-0.569,2.508-0.717
				C68.051,48.847,67.548,49.391,67.141,50.027z M66.581,51.885l0.002,0.006l-0.006,0.003c-0.016,0.01-1.616,1.021-2.624,2.587
				l-0.002,0.004h-0.442l-0.002-0.004c-0.008-0.013-0.736-1.159-2.111-2.207c1.137-1.162,2.405-2.088,3.764-2.758
				C65.655,50.013,66.205,50.769,66.581,51.885z M61.417,53.462c0.574,0.452,1.36,1.296,1.851,2.749l0.002,0.006l-0.005,0.003
				c-0.016,0.01-1.614,1.032-2.621,2.591l-0.002,0.004h-0.445l-0.003-0.004c-0.008-0.012-0.676-1.066-1.943-2.078
				c0.54-1.06,1.153-2.044,1.839-2.945c0.204-0.269,0.414-0.527,0.63-0.778C60.913,53.11,61.155,53.256,61.417,53.462z
				 M60.082,60.67l0.002,0.006l-0.005,0.003c-0.016,0.01-1.612,1.023-2.617,2.59l-0.002,0.004h-0.443l-0.002-0.004
				c-0.005-0.007-0.263-0.412-0.757-0.958c0.389-1.673,0.912-3.24,1.565-4.682c0.128,0.08,0.267,0.175,0.413,0.29
				C58.807,58.372,59.593,59.216,60.082,60.67z M56.924,65.086l0.001,0.006l-0.005,0.004c-0.009,0.006-0.605,0.385-1.296,1.035
				c0.099-0.954,0.237-1.883,0.412-2.783C56.363,63.795,56.681,64.365,56.924,65.086z M57.214,66.194l0.002-0.001l0.002,0.001
				c0.005,0.002,0.519,0.15,1.14,0.641c0.574,0.451,1.36,1.295,1.85,2.748l0.002,0.006l-0.005,0.003
				c-0.016,0.01-1.61,1.027-2.615,2.595l-0.002,0.004h-0.445l-0.002-0.004c-0.007-0.012-0.583-0.915-1.674-1.854
				c-0.029-0.665-0.029-1.341,0-2.024c0.012-0.289,0.028-0.576,0.046-0.861C55.929,66.945,56.493,66.451,57.214,66.194z
				 M57.126,74.028l0.002,0.006l-0.005,0.003c-0.008,0.006-0.441,0.281-0.997,0.764c-0.275-1.05-0.47-2.152-0.579-3.293
				C56.079,71.995,56.711,72.79,57.126,74.028z M57.342,74.983l0.003-0.002l0.002,0.001c0.005,0.002,0.518,0.15,1.14,0.641
				c0.574,0.451,1.36,1.295,1.851,2.748l0.002,0.006l-0.006,0.003c-0.012,0.008-0.978,0.622-1.88,1.628
				c-0.9-1.305-1.612-2.812-2.117-4.461C56.63,75.315,56.964,75.116,57.342,74.983z M60.783,79.439l0.002-0.001h0.003
				c0.005,0.002,0.517,0.15,1.139,0.643c0.573,0.452,1.359,1.298,1.851,2.753l0.002,0.006l-0.005,0.003
				c-0.01,0.006-0.572,0.362-1.239,0.976c-1.03-0.604-1.963-1.345-2.794-2.22c-0.251-0.266-0.493-0.544-0.725-0.834
				C59.44,80.237,60.024,79.706,60.783,79.439z M64.222,83.9l0.002-0.001h0.002c0.005,0.002,0.518,0.149,1.14,0.639
				c0.227,0.179,0.487,0.419,0.75,0.734c-0.95-0.243-1.842-0.567-2.678-0.973C63.675,84.139,63.936,84.001,64.222,83.9z
				 M70.718,83.9l0.002-0.001h0.003c0.005,0.002,0.518,0.149,1.138,0.639c0.318,0.251,0.703,0.624,1.065,1.154
				c-0.711,0.084-1.449,0.126-2.215,0.126c-0.065,0-0.13-0.001-0.195-0.001c-0.658-0.007-1.296-0.042-1.916-0.106
				C69.025,85.055,69.721,84.251,70.718,83.9z M71.059,82.768l-0.005-0.003l0.002-0.006c0.001-0.007,0.205-0.658,0.655-1.39
				c0.416-0.675,1.133-1.558,2.19-1.93l0.002-0.001h0.003c0.005,0.002,0.518,0.15,1.139,0.643c0.574,0.452,1.36,1.298,1.85,2.753
				l0.002,0.006l-0.005,0.003c-0.016,0.011-1.613,1.021-2.62,2.585l-0.002,0.004h-0.445l-0.002-0.004
				C73.813,85.413,72.855,83.907,71.059,82.768z M77.212,83.9l0.002-0.001h0.002c0.004,0.002,0.277,0.08,0.666,0.312
				c-0.75,0.396-1.55,0.718-2.401,0.968C75.902,84.668,76.475,84.159,77.212,83.9z M77.555,82.768l-0.005-0.003l0.002-0.007
				c0.002-0.006,0.207-0.657,0.657-1.389c0.416-0.675,1.133-1.558,2.187-1.93l0.001-0.001H80.4c0.005,0.002,0.518,0.15,1.14,0.643
				c0.161,0.127,0.339,0.286,0.523,0.479c-0.361,0.498-0.751,0.965-1.171,1.397c-0.643,0.663-1.349,1.24-2.116,1.733
				C78.425,83.38,78.019,83.062,77.555,82.768z M80.612,78.312l-0.005-0.003l0.002-0.007c0.001-0.006,0.205-0.658,0.656-1.39
				c0.417-0.675,1.134-1.558,2.192-1.929l0.002-0.002l0.002,0.001c0.004,0.002,0.423,0.123,0.961,0.507
				c-0.449,1.644-1.088,3.12-1.91,4.409C82.054,79.406,81.418,78.822,80.612,78.312z M83.686,73.962l-0.005-0.003l0.001-0.006
				c0.001-0.007,0.205-0.658,0.656-1.39c0.191-0.31,0.446-0.663,0.768-0.991c-0.095,1.077-0.253,2.104-0.475,3.078
				C84.348,74.416,84.033,74.183,83.686,73.962z M83.697,72.187l-0.002,0.004h-0.444l-0.002-0.004
				c-0.009-0.015-0.969-1.523-2.765-2.666l-0.005-0.004l0.002-0.006c0.002-0.006,0.206-0.656,0.657-1.386
				c0.416-0.675,1.133-1.557,2.189-1.931l0.002-0.001l0.002,0.001c0.005,0.002,0.518,0.149,1.139,0.639
				c0.212,0.168,0.452,0.389,0.696,0.673c0.013,0.224,0.023,0.445,0.03,0.667c0.024,0.79,0.018,1.56-0.017,2.307
				C84.694,70.917,84.139,71.499,83.697,72.187z"/>
		</g>
	</g>
</g>
<g id="Layer_3" display="none">
	<g display="inline">
		<g>
			<line fill="none" stroke="#ED2D8C" stroke-width="0.25" x1="17.24" y1="446.892" x2="20.24" y2="446.892"/>
			
				<line fill="none" stroke="#ED2D8C" stroke-width="0.25" stroke-dasharray="6.0212,6.0212" x1="26.261" y1="446.892" x2="396.562" y2="446.892"/>
			<line fill="none" stroke="#ED2D8C" stroke-width="0.25" x1="399.573" y1="446.892" x2="402.573" y2="446.892"/>
		</g>
	</g>
	<g display="inline">
		<g>
			<line fill="none" stroke="#ED2D8C" stroke-width="0.25" x1="17.24" y1="506.642" x2="20.24" y2="506.642"/>
			
				<line fill="none" stroke="#ED2D8C" stroke-width="0.25" stroke-dasharray="6.0212,6.0212" x1="26.261" y1="506.642" x2="396.562" y2="506.642"/>
			<line fill="none" stroke="#ED2D8C" stroke-width="0.25" x1="399.573" y1="506.642" x2="402.573" y2="506.642"/>
		</g>
	</g>
	<g display="inline">
		<g>
			<line fill="none" stroke="#ED2D8C" stroke-width="0.25" x1="17.24" y1="27.091" x2="20.24" y2="27.091"/>
			
				<line fill="none" stroke="#ED2D8C" stroke-width="0.25" stroke-dasharray="6.024,6.024" x1="26.264" y1="27.091" x2="709.994" y2="27.091"/>
			<line fill="none" stroke="#ED2D8C" stroke-width="0.25" x1="713.006" y1="27.091" x2="716.006" y2="27.091"/>
		</g>
	</g>
	<g display="inline">
		<g>
			<line fill="none" stroke="#ED2D8C" stroke-width="0.25" x1="17.24" y1="86.842" x2="20.24" y2="86.842"/>
			
				<line fill="none" stroke="#ED2D8C" stroke-width="0.25" stroke-dasharray="6.024,6.024" x1="26.264" y1="86.842" x2="709.994" y2="86.842"/>
			<line fill="none" stroke="#ED2D8C" stroke-width="0.25" x1="713.006" y1="86.842" x2="716.006" y2="86.842"/>
		</g>
	</g>
	<g display="inline">
		<g>
			<line fill="none" stroke="#ED2D8C" stroke-width="0.25" x1="17.24" y1="227.842" x2="20.24" y2="227.842"/>
			
				<line fill="none" stroke="#ED2D8C" stroke-width="0.25" stroke-dasharray="6.0212,6.0212" x1="26.261" y1="227.842" x2="396.562" y2="227.842"/>
			<line fill="none" stroke="#ED2D8C" stroke-width="0.25" x1="399.573" y1="227.842" x2="402.573" y2="227.842"/>
		</g>
	</g>
	<g display="inline">
		<g>
			<line fill="none" stroke="#ED2D8C" stroke-width="0.25" x1="17.24" y1="306.303" x2="20.24" y2="306.303"/>
			
				<line fill="none" stroke="#ED2D8C" stroke-width="0.25" stroke-dasharray="6.0212,6.0212" x1="26.261" y1="306.303" x2="396.562" y2="306.303"/>
			<line fill="none" stroke="#ED2D8C" stroke-width="0.25" x1="399.573" y1="306.303" x2="402.573" y2="306.303"/>
		</g>
	</g>
</g>
<g id="Guides">
</g>
<g id="Layer_4">
</g>
</svg>
